<svg width="3635" height="710" viewBox="0 0 3635 710" fill="none" xmlns="http://www.w3.org/2000/svg">
<path fill-rule="evenodd" clip-rule="evenodd" d="M309.108 0.627326C298.733 2.82033 289.156 9.27933 280 20.2573C277.6 23.1343 277.007 23.3023 265.203 24.4433C242.764 26.6123 209.523 34.0503 190.115 41.2433C184.827 43.2033 172.625 48.6613 163 53.3713L145.5 61.9353L148.906 63.3393C158.074 67.1213 195.16 73.5673 222 76.0463C274.197 80.8653 371.509 80.8673 419 76.0493C445.143 73.3963 492 64.6613 492 62.4393C492 61.4133 467.614 49.1683 455 43.8613C432 34.1833 408.336 28.4143 376 24.5993C361.264 22.8613 359.312 22.4103 357.738 20.3823C349.325 9.53933 344.53 5.72933 335.233 2.50133C328.639 0.212326 315.523 -0.728674 309.108 0.627326ZM107.986 79.8653C79.195 104.465 50.519 149.365 36.126 192.381C27.309 218.733 24.117 237.385 23.333 267.139C22.658 292.738 23.628 306.241 27.63 326.961C37.127 376.143 56.622 414.182 94.843 458.111L100.934 465.111L100.98 475.111C101.006 480.611 101.296 486.115 101.625 487.341C103.222 493.299 132.047 501.069 174.5 506.986C220.743 513.43 250.039 515.012 324 515.058C386.423 515.096 396.582 514.63 444 509.553C481.875 505.497 520.654 497.646 531.224 491.893C533.969 490.399 536.616 488.12 537.107 486.829C537.598 485.537 538 479.863 538 474.219V463.957L542.566 459.034C549.727 451.312 566.363 430.466 571.786 422.419C616.513 356.048 628.088 265.937 601.625 190.111C588.567 152.693 573.91 127.636 545.47 94.1113C533.563 80.0753 526.429 73.2323 524.48 73.9803C523.716 74.2733 514.184 75.8683 503.296 77.5243C389.076 94.8953 304.95 97.2883 204 86.0393C170.568 82.3143 127.443 76.3103 117.986 74.0653C115.923 73.5753 114.13 74.6153 107.986 79.8653ZM156.943 101.089C170.999 102.986 187.45 105.075 193.5 105.731C199.55 106.386 204.824 107.198 205.219 107.536C205.615 107.873 198.865 110.967 190.219 114.41C148.418 131.056 112.86 152.945 88.556 176.992C78.189 187.25 65.259 202.801 59.146 212.364C53.017 221.951 53.303 218.26 60.207 198.671C74.093 159.274 88.589 134.943 114.085 108.244C124.597 97.2373 125.568 96.4753 128.375 97.0363C130.031 97.3673 142.887 99.1913 156.943 101.089ZM514.471 110.862C541.655 167.798 545.194 226.954 525.045 287.611C510.434 331.598 487.09 368.515 451.024 404.672C417.9 437.879 387.601 459.28 339.882 483.17L323.022 491.611L303.761 491.489C293.167 491.422 278.2 491.084 270.5 490.739L256.5 490.111L256.85 486.171C257.355 480.487 263.357 463.737 269.124 451.918C282.204 425.111 298.399 406.008 355.1 350.499C400.931 305.633 413.554 291.507 430.565 266.052C446.332 242.457 459.444 212.67 464.92 187.999C469.985 165.183 471.911 130.71 469.155 112.206C468.507 107.858 468.209 104.068 468.494 103.784C468.89 103.388 499.67 98.5483 506.822 97.7573C507.594 97.6723 510.781 103.133 514.471 110.862ZM445.678 112.361C447.179 122.862 446.523 158.169 444.633 168.611C438.853 200.543 428.475 226.1 409.987 253.933C393.729 278.408 375.932 297.875 326.569 345.178C299.148 371.455 283.527 388.199 271.121 404.611C251.96 429.959 240.771 451.71 233.907 476.952C232.247 483.06 230.733 488.211 230.543 488.401C229.536 489.408 163.044 480.365 145.5 476.835L136.5 475.024L134.156 470.098C130.303 462.004 124.066 435.679 123.051 423.231C119.921 384.821 132.573 349.475 161.504 315.813C182.19 291.743 202.942 274.556 256.5 237.133C302.286 205.142 319.632 191.175 344.589 166.208C361.091 149.699 370.199 138.642 382.397 120.309L388.097 111.743L393.298 111.178C396.159 110.868 406.6 109.914 416.5 109.06C426.4 108.205 434.95 107.34 435.5 107.138C436.05 106.935 438.38 106.733 440.678 106.69L444.856 106.611L445.678 112.361ZM357.998 113.768C358.003 115.133 345.756 130.486 337.3 139.715C315.867 163.108 289.369 184.881 242.5 217.609C216.696 235.628 186.76 258.119 174.57 268.646C136.431 301.579 110.144 341.27 102.544 377.402C100.86 385.406 99 406.356 99 417.315C99 422.134 98.64 424.507 97.973 424.094C96.157 422.972 77.621 394.38 73.349 386.111C59.648 359.593 48.918 320.737 50.317 302.706C52.468 274.965 70.708 234.616 93.959 206.161C122.14 171.673 169.33 145.278 247.716 120.159L269.932 113.04L313.963 113.076C338.181 113.095 357.996 113.406 357.998 113.768ZM563.864 163.611C575.447 186.073 583.639 211.039 587.491 235.611C589.708 249.758 590.643 289.759 589.101 304.487C584.265 350.681 568.122 388.512 536.35 428.111C525.174 442.041 503.669 463.474 492.334 471.981C482.412 479.428 482.16 479.506 456.5 483.115C426.717 487.303 383.379 491.088 381.73 489.644C381.306 489.274 385.499 486.077 391.048 482.541C426.951 459.659 451.639 439.361 478.405 410.717C522.723 363.29 550.527 306.935 559.434 246.483C562.719 224.187 560.992 180.175 555.937 157.372C554.872 152.565 554.01 148.29 554.022 147.872C554.075 146.081 558.353 152.923 563.864 163.611ZM1720.6 220.529C1707.15 242.303 1695 263.527 1695 265.238C1695 267.638 1737.33 268.34 1743.32 266.04C1744.19 265.709 1747.66 261.625 1751.05 256.964C1754.43 252.304 1765.16 238.505 1774.89 226.301C1784.62 214.096 1792.92 203.549 1793.35 202.861C1793.96 201.871 1787.68 201.611 1763.2 201.611H1732.29L1720.6 220.529ZM743.172 208.361C743.987 209.324 755.081 223.226 767.825 239.256L790.997 268.4L806.249 269.11C814.637 269.5 828.124 269.66 836.22 269.465L850.94 269.111L857.07 263.111C866.925 253.467 902 211.071 902 208.804C902 207.132 894.878 206.633 870.833 206.622L847.166 206.611L840.359 215.361C831.091 227.275 825.064 233.611 823 233.611C820.973 233.611 815.169 227.532 805.575 215.361L798.677 206.611H770.184C743.149 206.611 741.766 206.701 743.172 208.361ZM2038.56 237.46L2063.09 268.309L2075.2 268.96C2090.57 269.786 2111.92 269.783 2118.82 268.955C2124.12 268.319 2124.19 268.26 2133.9 257.213C2144.67 244.962 2175 208.022 2175 207.157C2175 206.857 2162.74 206.638 2147.75 206.67L2120.5 206.73L2113.5 215.265C2104.8 225.87 2097.46 232.611 2094.6 232.611C2091.95 232.611 2085.55 226.125 2077.1 214.861L2070.91 206.611H2042.47H2014.02L2038.56 237.46ZM981 297.656C975.225 298.047 970.434 298.421 970.354 298.488C969.542 299.169 968.953 347.86 968.455 455.225L967.862 583.339L972.374 584.475C977.863 585.857 990.782 585.791 1014 584.263L1031.5 583.111L1031.75 439.861L1032.01 296.611L1011.75 296.779C1000.61 296.871 986.775 297.266 981 297.656ZM1165 297.656C1143.05 298.255 1138.6 298.644 1133 300.455C1111.9 307.282 1096.52 324.221 1090.96 346.735C1088.26 357.695 1087.25 383.031 1088.94 397.503C1093.14 433.61 1107.72 451.806 1139.04 460.03C1154.73 464.151 1168.09 465.662 1197.2 466.607C1234.57 467.819 1240.85 469.117 1247.84 477.08C1253.59 483.633 1255.33 488.247 1255.8 498.217C1256.34 509.657 1254.39 517.155 1249.65 521.892C1243.11 528.434 1235.92 529.298 1177 530.626C1151.42 531.203 1121.84 531.934 1111.25 532.252L1092 532.83V557.557V582.285L1136.25 582.947C1160.59 583.311 1200.64 583.609 1225.26 583.61L1270.02 583.611L1278.76 578.947C1297.96 568.701 1307.26 557.886 1313.89 538.086C1322.3 513.009 1323.02 482.746 1315.76 460.729C1309.04 440.388 1293.58 423.978 1276 418.523C1265.2 415.171 1253.03 413.823 1204.5 410.602C1183.36 409.198 1165.46 406.901 1162.09 405.158C1158.93 403.525 1155.05 398.222 1151.82 391.111C1150.11 387.351 1149.54 384.25 1149.52 378.611C1149.5 371.945 1149.93 370.196 1153.4 362.882C1155.54 358.357 1158.02 354.001 1158.9 353.204C1160.52 351.733 1176.13 351.158 1272.1 349.029L1301.69 348.373L1302.35 328.831C1302.7 318.083 1303 306.437 1303 302.95V296.611L1246.75 296.786C1215.81 296.882 1179.02 297.273 1165 297.656ZM1346 323.111V349.611H1388.5H1431V466.611V583.611H1461.5H1492V466.765V349.918L1533.73 349.197C1556.69 348.8 1575.54 348.393 1575.63 348.293C1575.73 348.193 1576.13 336.524 1576.53 322.361L1577.26 296.611H1461.63H1346V323.111ZM1655.71 297.556C1630.38 297.985 1622.74 298.406 1622.12 299.41C1620.75 301.633 1620 363.799 1620 475.861L1620 583.611L1671.25 583.61C1699.44 583.609 1746.46 583.311 1775.75 582.946L1829 582.284V557.563V532.842L1810.25 532.234C1799.94 531.9 1774.85 531.393 1754.5 531.107C1734.15 530.821 1709.51 530.316 1699.74 529.984L1681.97 529.38L1682.24 496.245L1682.5 463.111L1721 462.503C1742.17 462.169 1769.96 461.832 1782.75 461.753L1806 461.611V438.178C1806 416.727 1805.85 414.702 1804.25 414.223C1798.3 412.445 1773.4 411.601 1734 411.84C1684.26 412.143 1683.98 412.111 1681.93 405.909C1681.1 403.393 1680.98 395.303 1681.51 377.035L1682.24 351.656L1685.37 351.197C1687.09 350.944 1719.31 350.235 1756.97 349.62C1794.63 349.006 1825.54 348.401 1825.67 348.277C1825.79 348.154 1826.21 336.478 1826.6 322.332L1827.31 296.611L1757.9 296.806C1719.73 296.914 1673.75 297.251 1655.71 297.556ZM2346.7 297.583C2338.96 298.118 2336.5 298.665 2334.99 300.186C2332.29 302.907 2327.93 315.316 2273.55 475.111C2237.1 582.215 2237.39 581.33 2238.39 582.338C2238.82 582.763 2253 583.242 2269.92 583.401L2300.67 583.691L2309.3 557.901C2314.05 543.717 2318.99 529.411 2320.28 526.111L2322.62 520.111H2370.56C2396.93 520.111 2420.64 520.476 2423.25 520.922C2429.07 521.916 2433.35 525.36 2436.38 531.491C2437.64 534.032 2442.22 546.573 2446.55 559.361L2454.43 582.611L2461.47 582.738C2465.33 582.808 2479.22 583.145 2492.32 583.488L2516.13 584.111L2515.52 580.843C2515.18 579.045 2509.26 561.495 2502.37 541.843C2495.48 522.19 2475.88 464.711 2458.82 414.111C2441.76 363.511 2425.9 316.486 2423.56 309.611L2419.32 297.111L2387.91 297.008C2370.64 296.951 2352.09 297.21 2346.7 297.583ZM2812.03 420.922C2812.07 544.846 2812.73 580.373 2815.04 583.165C2816.01 584.324 2819.65 584.61 2833.37 584.606C2842.79 584.604 2855.5 584.314 2861.62 583.961L2872.73 583.321L2873.47 523.716C2873.87 490.933 2874.41 463.774 2874.66 463.361C2875.06 462.706 2985.89 462.209 2986.07 462.861C2986.11 462.998 2986.5 490.019 2986.95 522.906C2987.39 555.794 2987.99 582.934 2988.27 583.219C2988.79 583.738 3046.22 585.543 3046.82 585.059C3047 584.916 3047.41 519.991 3047.73 440.781L3048.32 296.763L3026.91 297.219C3015.13 297.469 3001.79 297.926 2997.25 298.232L2989 298.791L2988.86 311.451C2988.78 318.414 2988.44 343.011 2988.11 366.111L2987.5 408.111L2930.41 408.369L2873.32 408.627L2872.66 382.369C2872.3 367.927 2872 343.214 2872 327.451L2872 298.791L2863.75 298.234C2859.21 297.928 2845.71 297.465 2833.75 297.205L2812 296.733L2812.03 420.922ZM3091 323.111V349.611L3098.25 349.728C3143.02 350.452 3172.92 351.202 3173.3 351.611C3174.12 352.486 3176.02 470.298 3176.02 519.611C3176.01 545.736 3176.3 570.823 3176.65 575.361L3177.3 583.611H3205.99H3234.68L3235.39 467.89C3235.82 396.975 3236.46 351.943 3237.04 351.585C3237.56 351.263 3256.08 350.445 3278.2 349.766C3300.32 349.088 3318.48 348.438 3318.57 348.322C3318.66 348.206 3319.03 336.524 3319.39 322.361L3320.06 296.611H3205.53H3091V323.111ZM3346.11 316.436C3362.2 347.514 3381.54 383.858 3405.01 427.111C3416.95 449.111 3429.03 471.426 3431.86 476.701L3437 486.291V534.951V583.611H3467.5H3498V534.496V485.381L3519.14 445.746C3546.28 394.844 3574.78 342.526 3586.64 321.841C3599.6 299.246 3599.46 299.52 3597.84 298.494C3596.28 297.505 3549.88 297.308 3538.83 298.243L3531.35 298.875L3516.58 328.493C3489.12 383.558 3469.36 420.581 3467.41 420.6C3465.55 420.618 3453.95 399.114 3428.24 347.937L3403.53 298.763L3394.52 298.217C3389.56 297.917 3374.35 297.467 3360.71 297.217L3335.93 296.762L3346.11 316.436ZM760.5 298.737C737.885 301.559 715.379 323.953 707.807 351.169C705.622 359.019 705.593 360.078 705.242 442.611L704.887 526.111L708.997 534.994C716.559 551.341 726.352 563.038 740.161 572.218C749.914 578.702 757.536 581.58 767.822 582.662C778.127 583.747 825.496 583.868 879.836 582.949L919 582.286V557.449C919 543.788 918.888 532.6 918.75 532.586C918.612 532.572 888.386 531.922 851.579 531.141L784.659 529.722L777.329 522.442L770 515.161V440.041V364.922L778.745 357.266L787.489 349.611H845.695C905.518 349.611 911.741 349.259 916.239 345.621C918.448 343.833 918.507 343.273 918.802 321.361L919.104 298.931L899.391 298.271C871.638 297.342 768.923 297.686 760.5 298.737ZM2039.5 298.6C2017.88 300.901 1999.51 312.848 1991.5 329.816C1985.26 343.027 1983.04 355.701 1983.04 378.111C1983.04 410.272 1989.08 430.878 2002.43 444.222C2016.14 457.932 2035.87 463.408 2079.5 465.611C2127.76 468.047 2134.42 469.005 2141.01 474.458C2148.46 480.624 2152.26 493.663 2150.16 505.908C2148.13 517.717 2142.39 525.126 2133.42 527.513C2127.38 529.117 2100.16 530.426 2059.5 531.066C2039.7 531.378 2015.02 531.907 2004.66 532.241L1985.82 532.849L1986.16 557.148C1986.35 570.512 1986.79 581.736 1987.14 582.09C1987.5 582.444 2025.97 582.818 2072.64 582.922C2166.16 583.13 2165.72 583.156 2177.19 576.911C2184.31 573.033 2196.27 561.596 2200.32 554.789C2209.84 538.758 2213.74 517.94 2212.71 488.611C2211.74 461.2 2207.43 448.039 2195.26 435.428C2191.54 431.577 2185.29 426.28 2181.37 423.656C2170.29 416.237 2163.09 414.957 2116.5 412.105C2088.31 410.38 2065.85 408.187 2059.87 406.576C2054.34 405.088 2050.48 401.337 2046.82 393.897C2040.86 381.795 2042.08 371.007 2050.8 358.507C2053.53 354.602 2055.66 352.711 2058.53 351.662C2061.81 350.465 2074.21 350.147 2129.73 349.833L2196.97 349.452L2198.04 345.468C2199.24 341.018 2198.98 300.254 2197.75 299.024C2196.69 297.964 2049.19 297.568 2039.5 298.6ZM2610.99 298.676C2592.96 300.592 2574.68 310.899 2564.29 325.002C2561.81 328.362 2557.06 336.649 2553.74 343.419L2547.68 355.726L2548.38 432.919C2548.76 475.374 2549.52 514.125 2550.07 519.031C2551.72 533.94 2557.71 545.938 2569.91 558.84C2582.79 572.447 2597.67 580.629 2613.04 582.557C2618.23 583.207 2648.8 583.611 2692.88 583.611H2764.31L2763.66 572.361C2763.3 566.174 2763 555.261 2762.99 548.111C2762.98 540.961 2762.62 534.557 2762.19 533.881C2761.6 532.949 2747.21 532.405 2702.95 531.641C2634.54 530.459 2628.46 529.813 2621.65 522.992C2613.27 514.606 2612.53 507.866 2612.51 440.611C2612.5 382.258 2613.16 372.181 2617.5 363.602C2621.76 355.211 2626.66 353.029 2644.47 351.597C2654.37 350.801 2736.5 348.611 2756.46 348.611H2762V323.77V298.928L2741.75 298.272C2714.46 297.388 2620.37 297.679 2610.99 298.676ZM2378.42 358.455C2382.45 366.253 2410.96 454.124 2412.5 463.52L2413.23 467.929L2378.36 467.339C2359.19 467.015 2342.67 466.43 2341.67 466.04C2338.7 464.895 2337.98 467.434 2364.37 385.611C2371.02 364.984 2374.8 355.611 2376.46 355.611C2376.73 355.611 2377.61 356.891 2378.42 358.455ZM133.763 520.176C127.909 523.353 128 522.347 128 583.561V639.611H64H0V674.611V709.611H1817.5H3635V674.611V639.611H2072H509V582.534V525.457L506.128 522.585C504.549 521.006 501.961 519.388 500.378 518.99C498.795 518.592 487.15 519.248 474.5 520.447C350.729 532.184 276.178 532.21 162.505 520.558C140.049 518.256 137.367 518.221 133.763 520.176Z" fill="#377B4A"/>
</svg>
